PathFileType	4	(X/Y/Z)	/Users/itak/Documents/Research/Walk-IL/dataset/trc/00204_00008.trc
DataRate	CameraRate	NumFrames	NumMarkers	Units	OrigDataRate	OrigDataStartFrame	OrigNumFrames
100.000000	100.000000	4	53	mm	100.000000	0	499
Frame#	Time	RPSI			LPSI			L3			STRN			T10			C7			CLAV			RBAK			LBAK			LSHO			LUPA			LAEL			LAOL			LWTS			LWPS			LFRA			LIFD			LHPS			LHTS			RSHO			RUPA			RAEL			RAOL			RWTS			RWPS			RFRA			RIFD			RHTS			RHPS			RBHD			LFHD			RFHD			LBHD			LHIP			RHIP			RASI			LASI			LKNE			LTHI			LANK			LTIP			LTOE			LMT1			LMT5			LHEE			RKNE			RTHI			RANK			RTIP			RTOE			RMT1			RMT5			RHEE			
		X1	Y1	Z1	X2	Y2	Z2	X3	Y3	Z3	X4	Y4	Z4	X5	Y5	Z5	X6	Y6	Z6	X7	Y7	Z7	X8	Y8	Z8	X9	Y9	Z9	X10	Y10	Z10	X11	Y11	Z11	X12	Y12	Z12	X13	Y13	Z13	X14	Y14	Z14	X15	Y15	Z15	X16	Y16	Z16	X17	Y17	Z17	X18	Y18	Z18	X19	Y19	Z19	X20	Y20	Z20	X21	Y21	Z21	X22	Y22	Z22	X23	Y23	Z23	X24	Y24	Z24	X25	Y25	Z25	X26	Y26	Z26	X27	Y27	Z27	X28	Y28	Z28	X29	Y29	Z29	X30	Y30	Z30	X31	Y31	Z31	X32	Y32	Z32	X33	Y33	Z33	X34	Y34	Z34	X35	Y35	Z35	X36	Y36	Z36	X37	Y37	Z37	X38	Y38	Z38	X39	Y39	Z39	X40	Y40	Z40	X41	Y41	Z41	X42	Y42	Z42	X43	Y43	Z43	X44	Y44	Z44	X45	Y45	Z45	X46	Y46	Z46	X47	Y47	Z47	X48	Y48	Z48	X49	Y49	Z49	X50	Y50	Z50	X51	Y51	Z51	X52	Y52	Z52	X53	Y53	Z53	

1	0	-1615.136962890625	1055.332641601562	-537.6219482421875	-1606.228515625	1053.347290039062	-662.8065795898438	-1609.745361328125	1090.292358398438	-598.8885498046875	-1356.268798828125	1301.086303710938	-589.7926635742188	-1646.809936523438	1244.517211914062	-612.4356689453125	-1584.878662109375	1515.473876953125	-623.8605346679688	-1384.184448242188	1413.986694335938	-601.9759521484375	-1657.670654296875	1340.1015625	-516.8280639648438	-1583.0625	1489.981689453125	-725.5441284179688	-1498.003662109375	1477.457275390625	-796.4463500976562	-1515.22265625	1343.577880859375	-871.3571166992188	-1486.734375	1123.772338867188	-882.9115600585938	-1551.33447265625	1109.515869140625	-825.292724609375	-1362.605590820312	907.7745361328125	-815.3912353515625	-1444.042724609375	872.5293579101562	-871.9140625	-1463.823364257812	1013.368957519531	-887.44677734375	-1375.865478515625	717.9944458007812	-771.5208129882812	-1423.470458984375	804.3413696289062	-861.0785522460938	-1361.586303710938	818.2095336914062	-823.6066284179688	-1537.034545898438	1498.381225585938	-437.8198547363281	-1559.25927734375	1432.60400390625	-368.7341918945312	-1560.395263671875	1141.72900390625	-311.1410217285156	-1565.6162109375	1134.612182617188	-409.5873413085938	-1408.933227539062	922.3496704101562	-337.9610595703125	-1480.6337890625	901.3208618164062	-287.2263488769531	-1531.1435546875	1070.70458984375	-294.0819396972656	-1390.710327148438	736.8731079101562	-366.1153564453125	-1377.273803710938	830.7770385742188	-330.4678344726562	-1448.263671875	821.0120239257812	-288.9205932617188	-1551.358032226562	1674.6494140625	-562.007568359375	-1363.6630859375	1737.675415039062	-652.9156494140625	-1394.226928710938	1741.79638671875	-527.234130859375	-1527.6279296875	1677.315673828125	-697.5291748046875	-1495.440795898438	990.6250610351562	-771.999267578125	-1486.3837890625	1008.137573242188	-426.4263000488281	-1379.964721679688	1042.32861328125	-455.5411987304688	-1373.459350585938	1026.3896484375	-712.085693359375	-1493.025146484375	494.0677795410156	-736.4225463867188	-1481.270629882812	635.6058349609375	-764.0055541992188	-1585.90185546875	41.74802017211914	-743.2971801757812	-1536.375610351562	274.5601196289062	-752.8275756835938	-1364.589477539062	39.62308502197266	-739.1735229492188	-1410.658447265625	39.60131454467773	-686.315185546875	-1481.792602539062	34.06145095825195	-792.4229125976562	-1630.021362304688	37.9544563293457	-670.1192016601562	-1478.0400390625	514.17626953125	-417.6051330566406	-1423.398193359375	781.1436767578125	-389.6189575195312	-1565.265014648438	36.94620513916016	-417.0117492675781	-1471.477661132812	398.0680236816406	-434.0038452148438	-1340.002075195312	40.41383361816406	-443.1259460449219	-1394.717895507812	38.68882369995117	-490.4733276367188	-1454.822265625	36.50300979614258	-377.6543884277344	-1613.444702148438	31.67179489135742	-485.8262023925781	
2	0.01	-1615.126831054688	1055.332763671875	-537.6237182617188	-1606.247680664062	1053.34912109375	-662.81689453125	-1609.7412109375	1090.293212890625	-598.89208984375	-1356.22802734375	1301.088134765625	-589.7896728515625	-1646.798706054688	1244.517944335938	-612.4481811523438	-1584.843139648438	1515.469116210938	-623.9129638671875	-1384.168579101562	1413.978881835938	-601.9817504882812	-1657.651000976562	1340.103881835938	-516.8510131835938	-1582.991333007812	1489.962768554688	-725.58642578125	-1497.953247070312	1477.424072265625	-796.4734497070312	-1515.155517578125	1343.534912109375	-871.3538818359375	-1486.647338867188	1123.708740234375	-882.8247680664062	-1551.282348632812	1109.479248046875	-825.2234497070312	-1362.527465820312	907.7396850585938	-815.23779296875	-1443.846801757812	872.4695434570312	-871.6934204101562	-1463.6875	1013.306945800781	-887.2880859375	-1375.460693359375	718.2001953125	-770.9442749023438	-1423.382080078125	804.2841186523438	-860.77197265625	-1361.45458984375	818.1787719726562	-823.2340698242188	-1537.008544921875	1498.3837890625	-437.8370666503906	-1559.258422851562	1432.613891601562	-368.7528991699219	-1560.381591796875	1141.74267578125	-311.131103515625	-1565.601440429688	1134.617309570312	-409.5791625976562	-1408.903076171875	922.3698120117188	-337.9110717773438	-1480.623291015625	901.3427124023438	-287.1948852539062	-1531.150146484375	1070.718139648438	-294.0816650390625	-1390.626586914062	736.9093017578125	-366.0483093261719	-1377.258666992188	830.8010864257812	-330.4210205078125	-1448.241943359375	821.0382690429688	-288.8661193847656	-1551.32373046875	1674.669799804688	-562.0748291015625	-1363.63525390625	1737.659912109375	-652.9412231445312	-1394.207641601562	1741.797729492188	-527.2489624023438	-1527.57470703125	1677.312255859375	-697.5955200195312	-1495.426025390625	990.625732421875	-771.9994506835938	-1486.372436523438	1008.158386230469	-426.4221496582031	-1379.955200195312	1042.323364257812	-455.5547180175781	-1373.454833984375	1026.389526367188	-712.0860595703125	-1493.048828125	494.0698547363281	-736.4176025390625	-1481.297973632812	635.6033325195312	-764.0034790039062	-1585.90234375	41.74076843261719	-743.296630859375	-1536.383056640625	274.5582885742188	-752.8231811523438	-1364.58935546875	39.62313461303711	-739.1731567382812	-1410.671630859375	39.60205841064453	-686.3192749023438	-1481.795288085938	34.05426025390625	-792.42333984375	-1630.025756835938	37.95880508422852	-670.1195678710938	-1478.049072265625	514.17529296875	-417.6064453125	-1423.365234375	781.1459350585938	-389.6221008300781	-1565.266357421875	36.94606399536133	-417.0048217773438	-1471.48193359375	398.0687561035156	-434.00439453125	-1340	40.41345596313477	-443.1249389648438	-1394.716186523438	38.68665313720703	-490.4719543457031	-1454.81982421875	36.50300216674805	-377.6634216308594	-1613.445922851562	31.67005157470703	-485.8265991210938	
3	0.02	-1615.1181640625	1055.331665039062	-537.6260986328125	-1606.258422851562	1053.350219726562	-662.82763671875	-1609.739868164062	1090.294067382812	-598.8980102539062	-1356.176391601562	1301.08984375	-589.7875366210938	-1646.783569335938	1244.518676757812	-612.4635009765625	-1584.794189453125	1515.460205078125	-623.9801025390625	-1384.122192382812	1413.974853515625	-601.98779296875	-1657.62744140625	1340.110473632812	-516.882568359375	-1582.9013671875	1489.938110351562	-725.6428833007812	-1497.885375976562	1477.380126953125	-796.5103149414062	-1515.068481445312	1343.476928710938	-871.3505249023438	-1486.533935546875	1123.625854492188	-882.7167358398438	-1551.214599609375	1109.430908203125	-825.1360473632812	-1362.417724609375	907.6888427734375	-815.0343627929688	-1443.617309570312	872.395751953125	-871.4173583984375	-1463.519775390625	1013.224670410156	-887.0960083007812	-1375.078735351562	718.3981323242188	-770.24853515625	-1423.264892578125	804.21240234375	-860.38916015625	-1361.29833984375	818.1343383789062	-822.7861938476562	-1536.972778320312	1498.388549804688	-437.8605651855469	-1559.2509765625	1432.626342773438	-368.7774353027344	-1560.35888671875	1141.758666992188	-311.1204223632812	-1565.578491210938	1134.62255859375	-409.5704650878906	-1408.862060546875	922.3948974609375	-337.8509521484375	-1480.611328125	901.3689575195312	-287.1568298339844	-1531.153198242188	1070.737060546875	-294.0798950195312	-1390.515014648438	736.9523315429688	-365.9687194824219	-1377.237548828125	830.8314208984375	-330.36376953125	-1448.21484375	821.0717163085938	-288.7991943359375	-1551.287475585938	1674.692993164062	-562.1600341796875	-1363.606323242188	1737.643432617188	-652.9815673828125	-1394.187377929688	1741.800537109375	-527.273681640625	-1527.51171875	1677.301025390625	-697.6765747070312	-1495.408203125	990.6241455078125	-771.9992065429688	-1486.3564453125	1008.181213378906	-426.412353515625	-1379.947387695312	1042.317749023438	-455.5718994140625	-1373.448120117188	1026.388549804688	-712.0868530273438	-1493.075317382812	494.0718994140625	-736.4132690429688	-1481.327270507812	635.600830078125	-764.00244140625	-1585.90478515625	41.73486709594727	-743.2969360351562	-1536.392456054688	274.55615234375	-752.8196411132812	-1364.588989257812	39.62306213378906	-739.1727905273438	-1410.685546875	39.60256195068359	-686.3239135742188	-1481.79931640625	34.04581069946289	-792.42431640625	-1630.030883789062	37.96336364746094	-670.1195068359375	-1478.061767578125	514.1737060546875	-417.6089782714844	-1423.33740234375	781.1456909179688	-389.6246337890625	-1565.269165039062	36.94536209106445	-416.9974060058594	-1471.48681640625	398.06982421875	-434.0049743652344	-1339.998413085938	40.41312408447266	-443.1246643066406	-1394.71533203125	38.68544769287109	-490.4708251953125	-1454.81787109375	36.50290298461914	-377.6715087890625	-1613.448120117188	31.66854095458984	-485.8268432617188	
4	0.03	-1615.113159179688	1055.328369140625	-537.6295776367188	-1606.2587890625	1053.349853515625	-662.83837890625	-1609.742309570312	1090.294921875	-598.9065551757812	-1356.116943359375	1301.090576171875	-589.7869262695312	-1646.764892578125	1244.519409179688	-612.4813842773438	-1584.73193359375	1515.446533203125	-624.0594482421875	-1384.044555664062	1413.974487304688	-601.9946899414062	-1657.600952148438	1340.122680664062	-516.9220581054688	-1582.795288085938	1489.908447265625	-725.7127685546875	-1497.801391601562	1477.32666015625	-796.5570678710938	-1514.964111328125	1343.4052734375	-871.34765625	-1486.39794921875	1123.526611328125	-882.59326171875	-1551.132934570312	1109.371704101562	-825.0350341796875	-1362.275146484375	907.6217041015625	-814.78662109375	-1443.371826171875	872.3118286132812	-871.0978393554688	-1463.328125	1013.124084472656	-886.881591796875	-1374.734375	718.5776977539062	-769.4679565429688	-1423.119262695312	804.1285400390625	-859.947509765625	-1361.131713867188	818.0758666992188	-822.29296875	-1536.92724609375	1498.395874023438	-437.8903503417969	-1559.234497070312	1432.6416015625	-368.8071899414062	-1560.324951171875	1141.776245117188	-311.1100158691406	-1565.546264648438	1134.627807617188	-409.5621643066406	-1408.810180664062	922.4238891601562	-337.7848815917969	-1480.598388671875	901.3983154296875	-287.1143493652344	-1531.14892578125	1070.761840820312	-294.07568359375	-1390.37890625	736.9990844726562	-365.8824462890625	-1377.210815429688	830.866943359375	-330.2998352050781	-1448.18310546875	821.1112670898438	-288.7232666015625	-1551.254150390625	1674.716918945312	-562.2596435546875	-1363.580444335938	1737.62841796875	-653.0390625	-1394.16943359375	1741.805297851562	-527.3107299804688	-1527.44482421875	1677.279663085938	-697.767822265625	-1495.387939453125	990.6196899414062	-771.9987182617188	-1486.335205078125	1008.205444335938	-426.3951721191406	-1379.94384765625	1042.3125	-455.5921325683594	-1373.439819335938	1026.38623046875	-712.0880737304688	-1493.1005859375	494.0736083984375	-736.410400390625	-1481.354736328125	635.5987548828125	-764.003173828125	-1585.908569335938	41.73094177246094	-743.2979125976562	-1536.4033203125	274.5536804199219	-752.8175659179688	-1364.588500976562	39.62252807617188	-739.1724853515625	-1410.699096679688	39.60263442993164	-686.3289794921875	-1481.804565429688	34.03720092773438	-792.4259643554688	-1630.036376953125	37.9676628112793	-670.1190795898438	-1478.077758789062	514.1714477539062	-417.6129150390625	-1423.322143554688	781.1428833007812	-389.6269226074219	-1565.272827148438	36.9441032409668	-416.9902954101562	-1471.491455078125	398.0711669921875	-434.0052795410156	-1339.997192382812	40.41305541992188	-443.1252136230469	-1394.715698242188	38.68588256835938	-490.4695739746094	-1454.816772460938	36.50276947021484	-377.6772155761719	-1613.451904296875	31.66777420043945	-485.8267517089844	
